<svg xmlns="http://www.w3.org/2000/svg" xmlns:xlink="http://www.w3.org/1999/xlink" viewBox="0 0 80 80"><defs><style>.cls-1{fill:none;}.cls-2{isolation:isolate;}.cls-3{clip-path:url(#clip-path);}.cls-4{opacity:0.19;mix-blend-mode:screen;fill:url(#radial-gradient);}.cls-5{fill:#f9f1e1;}.cls-6{fill:#818181;}</style><clipPath id="clip-path"><rect class="cls-1" x="-1055.22" y="-764.8" width="1334.83" height="606.74"/></clipPath><radialGradient id="radial-gradient" cx="16.97" cy="-339.28" r="714.61" gradientTransform="translate(245.3 -383.7) scale(1.1 1.06)" gradientUnits="userSpaceOnUse"><stop offset="0" stop-color="#f9f1e1"/><stop offset="0.21" stop-color="#b3ada1"/><stop offset="0.42" stop-color="#737068"/><stop offset="0.61" stop-color="#42403b"/><stop offset="0.78" stop-color="#1e1d1b"/><stop offset="0.91" stop-color="#080807"/><stop offset="1"/></radialGradient></defs><g class="cls-2"><g id="Layer_1" data-name="Layer 1"><g class="cls-3"><ellipse class="cls-4" cx="263.88" cy="-743.92" rx="782.71" ry="758.71"/></g><path class="cls-5" d="M78.66,31.86V75a5,5,0,0,1-5,5h-28a5,5,0,0,1-5-5V46.35a5,5,0,0,0-5-5H6.36a5,5,0,0,1-5-5V31.86a5,5,0,0,1,1.89-3.93L36.88,1.1a5,5,0,0,1,6.26,0L76.77,27.93A5,5,0,0,1,78.66,31.86Z"/><path class="cls-6" d="M37.82,80H7.54a6.21,6.21,0,0,1-6.2-6.21V43.52Z"/></g></g></svg>