<svg xmlns="http://www.w3.org/2000/svg" id="Layer_1" data-name="Layer 1" viewBox="0 0 532.9 128"><defs><style>.cls-1{fill:#fff}</style></defs><path d="M531.7 14.3c-4.12 7.15-8.25 14.28-12.33 21.45a2.54 2.54 0 0 1-2.57 1.54c-7.87-.11-15.74-.09-23.61-.14-6.47 0-12.93-.15-19.4-.16a2.2 2.2 0 0 0-1.64.75c-3.58 6.12-7.09 12.28-10.61 18.44a5.25 5.25 0 0 0-.23.61l45.54.59c-.31.64-.5 1.06-.72 1.45q-15.48 27-30.94 54a2.67 2.67 0 0 1-2.72 1.55c-7.87-.07-15.77.43-23.6-.14-11.68-.86-23.34-.13-35-.48-.23 0-.47 0-.87-.09.18-.52.3-1 .47-1.4 2.74-6.75 5.5-13.48 8.2-20.24a1.73 1.73 0 0 1 1.91-1.28h35.35a2.2 2.2 0 0 0 2.25-1.32c1.47-2.71 3-5.37 4.57-8 .23-.41.44-.83.8-1.52h-24.52c-6.47 0-10.33-3.26-11.47-9.66a16.18 16.18 0 0 1 1.95-11.41c8.34-14.4 16.55-28.87 24.76-43.35a2.53 2.53 0 0 1 2.59-1.49h71.88ZM409.51 37.16h-17.34a1.9 1.9 0 0 0-1.95 1.11q-2.67 4.81-5.5 9.53a2.19 2.19 0 0 1-1.52 1h-25.5a6.12 6.12 0 0 1-.71-.1 9 9 0 0 1 .43-1.06c3.5-6.1 6.84-12.32 10.57-18.28 4.55-7.25 10.73-12.62 19.22-14.85a17.24 17.24 0 0 1 4.29-.51h41a10.12 10.12 0 0 1 9 15.37Q430 49.7 418.31 70c-1.62 2.85-3.32 5.65-4.9 8.53a2 2 0 0 1-2.08 1.12c-14.49 0-29 0-43.46-.05a2.55 2.55 0 0 0-2.61 1.5c-1.65 3.05-3.43 6-5.15 9.06-.18.32-.32.66-.56 1.17h45.68a12.14 12.14 0 0 1-.56 1.3q-5.9 10.31-11.8 20.59a1.92 1.92 0 0 1-1.91 1.16h-70.69c-.38 0-.76 0-1.32-.06.19-.42.31-.76.48-1.07 7.66-13.35 15.26-26.73 23-40 4.25-7.32 10.19-12.84 18.38-15.5a21.61 21.61 0 0 1 6.39-1c9.9-.1 19.8-.06 29.7 0a2.21 2.21 0 0 0 2.27-1.3c3.12-5.55 6.31-11.06 9.48-16.58.24-.53.45-.96.86-1.71ZM353.62 13.67l-4.5 7.91c-6.41 11.17-12.85 22.33-19.22 33.52a3 3 0 0 1-3 1.78c-7.82-.08-15.63 0-23.45 0h-2c3.89-6.82 7.63-13.35 11.45-20a11.37 11.37 0 0 0-1.22-.13h-15.64a1.81 1.81 0 0 0-1.83 1q-13.68 23.93-27.41 47.84c-1.07 1.86-2.14 3.73-3.34 5.8h17.06a1.77 1.77 0 0 0 1.81-1.07q4.5-8 9.12-16a2.34 2.34 0 0 1 1.64-1c8.36-.06 16.71 0 25.06 0a10.84 10.84 0 0 1 1.2.14L317 77.54q-10 17.61-20 35.23a2.64 2.64 0 0 1-2.68 1.59c-17.82-.07-35.64-.06-53.46-.08-8.55 0-13.33-8.25-9.07-15.67q19.62-34.22 39.3-68.38c4.37-7.56 10.51-13.18 19-15.77a16.9 16.9 0 0 1 4.83-.75q28.55-.08 57.08 0ZM271.11 13.67c-1.41 2.49-2.66 4.7-3.92 6.9-2.84 4.93-5.71 9.85-8.49 14.82a2.22 2.22 0 0 1-2.27 1.3h-43.31a2.22 2.22 0 0 0-2.26 1.3c-3 5.25-6 10.47-9 15.7-.21.37-.38.75-.69 1.39h45.89c-1.21 2.13-2.24 4-3.29 5.78-3 5.31-6.13 10.61-9.14 16a2.23 2.23 0 0 1-2.27 1.32h-42.88a2.43 2.43 0 0 0-2.48 1.28c-6.27 11-12.63 22-18.89 33a3.05 3.05 0 0 1-3.12 1.87c-8-.16-15.93-.18-23.9-.26-.33 0-.66 0-1.24-.09.27-.52.45-.94.68-1.32q23.63-41.17 47.27-82.34c4.1-7.11 9.8-12.55 17.61-15.4a20.37 20.37 0 0 1 6.78-1.23c19-.1 38.05-.06 57.08-.06ZM67.76 1c3.6.65 7.29 1 10.78 2 24.82 7.22 40.46 23.54 45.64 48.8 6.07 29.57-9.15 57.94-36.75 70.25a58.2 58.2 0 0 1-18.54 4.76 9 9 0 0 0-1.13.22H57.62c-2.28-.37-4.58-.61-6.82-1.12C25.18 120 9 104.23 2 79a99.56 99.56 0 0 1-1.76-9.93V58.93c.37-2.37.6-4.78 1.13-7.11C7.05 26.72 22.19 10.37 46.87 3 50.34 2 54 1.63 57.62 1ZM32 53.66l-9.77 15.58a7.93 7.93 0 0 0 1.22.21h38.24a2.41 2.41 0 0 0 1.69-1c3.76-6 7.44-12 11.15-17.93 1.16-1.87 2.34-3.72 3.67-5.84l5.65 9.16h-3.8c-.41 0-1 .09-1.17.35-1.56 2.35-3 4.74-4.72 7.37H87.4a2.08 2.08 0 0 1 2.09 1.17 37.56 37.56 0 0 1 2.09 3.47c1.2 2.77 3.15 3.8 6.13 3.35a37.61 37.61 0 0 1 5.23 0C94.61 56.18 86.48 43.2 78.25 30.09c-.37.48-.62.76-.81 1.07Q68.23 45.8 59.06 60.45a2.51 2.51 0 0 1-2.43 1.37c-6.18-.06-12.36 0-18.54 0-.51 0-1 0-1.65-.09a3.43 3.43 0 0 1 .21-.66c1.39-2.2 2.74-4.43 4.22-6.57a2.36 2.36 0 0 1 1.69-.75c3.23-.07 6.47-.15 9.7 0 1.89.09 3.11-.37 4-2.15s2.2-3.57 3.41-5.49C59.21 46 59 46 58.86 46h-28.4c-.34 0-.85.1-1 .34-1.56 2.35-3.05 4.74-4.72 7.36Zm2.76-15.81c.51.07.69.12.88.12h30.12c.35 0 .88-.07 1-.31 1.55-2.36 3-4.76 4.61-7.26a5.09 5.09 0 0 0-.76-.14H40.34a1.48 1.48 0 0 0-1.11.44c-1.5 2.3-2.93 4.62-4.5 7.15Zm33.81 46.21c2.77-.5 2.89-.45 3.8 1.75.35.84.67 1.7 1 2.54 1 2.37 1 2.37 3.77 2l-2.75-6.65.59-.52c2-1.52 2.47-6.31.81-8.17A3.08 3.08 0 0 0 74 73.85c-2.72-.12-5.45 0-8.2 0v16.56h2.73Zm-6.64-2v-4.97a3.36 3.36 0 0 0-3.46-3.33h-4.19a3.41 3.41 0 0 0-3.53 3.45q-.09 4.92 0 9.84a3.44 3.44 0 0 0 3.42 3.42c1.34.06 2.7.06 4.05 0 2.38-.08 3.68-1.43 3.71-3.86.07-1.51 0-3.05 0-4.61Zm-29.31-3.6c.53-3.22-.78-4.77-3.95-4.74h-1.3c-5.11 0-6.08 1-5.73 6.15A3.39 3.39 0 0 0 25 83.2h2.75c2.07 0 2.33.26 2.33 2.32S29.72 88 27.62 88a3.78 3.78 0 0 1-1.43 0 3.31 3.31 0 0 1-1.68-1.19c-.76-1.5-.92-1.65-2.72-1-.55 3.33.73 4.89 4 4.9h2.89c2.82 0 4.05-1.24 4.14-4 .13-4-.09-6.38-6-6.08-2.29.12-2.41-.08-2.39-2.14 0-1.85.25-2.08 2.09-2.09a7.85 7.85 0 0 1 1.88 0c.5.12 1.25.46 1.33.83.46 1.57 1.53 1.53 2.89 1.23Zm70.85.08c.45-3.18-1-4.83-4-4.82h-3.48a3.41 3.41 0 0 0-3.57 3.39c-.3 4.35.46 6.44 5.69 6.11a2.8 2.8 0 0 1 .29 0c2.25 0 2.41.15 2.41 2.35s-.2 2.39-2.4 2.39a5.54 5.54 0 0 1-1.73 0c-.52-.17-1.28-.6-1.34-1-.29-1.9-1.5-1.62-2.75-1.42-.54 2.89.58 4.87 2.87 5 1.63.08 3.28.06 4.92 0a3 3 0 0 0 3-2.48 15.8 15.8 0 0 0 .23-3.44c0-2.58-1.48-4-4.08-4.06h-2.89c-1.2 0-1.41-.83-1.4-1.77s-.19-2.14 1.21-2.43c2.49-.52 3.65 0 4.79 2.26Zm-64.1 11.87v-6a1.85 1.85 0 0 1 .47-.18c1.4 0 2.8 0 4.2-.07 2-.07 3.25-1.06 3.46-3a22.22 22.22 0 0 0-.09-4.89 3 3 0 0 0-2.94-2.53c-1.21-.07-2.42 0-3.62 0h-4.26v16.67ZM90 73.83H78.81v2.49h4.11v14.09h2.89V76.25H90Z" class="cls-1"/><path d="M32 53.66h-7.26c1.67-2.62 3.16-5 4.72-7.36.15-.24.66-.34 1-.34h28.4c.18 0 .35.06.81.13-1.21 1.92-2.48 3.62-3.41 5.49s-2.11 2.24-4 2.15c-3.23-.16-6.47-.08-9.7 0a2.36 2.36 0 0 0-1.69.75C39.39 56.61 38 58.84 36.65 61a3.43 3.43 0 0 0-.21.66c.63 0 1.14.09 1.65.09h18.54a2.51 2.51 0 0 0 2.43-1.37q9.15-14.67 18.38-29.29c.19-.31.44-.59.81-1.07 8.23 13.11 16.36 26.09 24.69 39.38a37.61 37.61 0 0 0-5.23 0c-3 .45-4.93-.58-6.13-3.35a37.56 37.56 0 0 0-2.09-3.47 2.08 2.08 0 0 0-2.09-1.17c-3.77.06-7.54 0-11.3 0h-1.94c1.67-2.63 3.16-5 4.72-7.37.18-.26.76-.33 1.17-.35h3.8l-5.65-9.04c-1.33 2.12-2.51 4-3.67 5.84-3.71 6-7.39 12-11.15 17.93a2.41 2.41 0 0 1-1.69 1c-12.74.06-25.49 0-38.24 0a7.93 7.93 0 0 1-1.22-.21Z"/><path d="M34.73 37.85c1.57-2.53 3-4.86 4.5-7.15a1.48 1.48 0 0 1 1.11-.44h30.27a5.09 5.09 0 0 1 .76.14c-1.58 2.5-3.06 4.9-4.61 7.26-.15.24-.68.31-1 .31H35.64c-.22.03-.4-.05-.91-.12ZM68.57 84.06v6.35h-2.73V73.8c2.75 0 5.48-.07 8.2 0a3.08 3.08 0 0 1 1.77 1.2c1.66 1.86 1.14 6.65-.81 8.17l-.59.52 2.75 6.65c-2.81.39-2.81.39-3.77-2-.35-.84-.67-1.7-1-2.54-.93-2.19-1.05-2.24-3.82-1.74Zm.11-2.78a28.71 28.71 0 0 0 3.62 0 1.8 1.8 0 0 0 1.31-1 7.64 7.64 0 0 0 0-2.86 1.49 1.49 0 0 0-1-1c-1.32-.13-2.65 0-4 0v4.13c-.02.11.03.34.07.73ZM61.93 82v4.63c0 2.43-1.33 3.78-3.71 3.86h-4.05a3.44 3.44 0 0 1-3.42-3.42q-.1-4.92 0-9.84a3.41 3.41 0 0 1 3.53-3.45h4.19a3.36 3.36 0 0 1 3.46 3.33V82Zm-8.28 0v2.6c0 3.4.01 3.4 3.35 3.4 1.58 0 2-.46 2.05-2.09v-6.07c0-3.56-.05-3.57-3.65-3.53-1.23 0-1.79.54-1.8 1.72.04 1.3.05 2.65.05 3.97ZM32.62 78.46c-1.36.3-2.43.34-2.82-1.33-.08-.37-.83-.71-1.33-.83a7.85 7.85 0 0 0-1.88 0c-1.84 0-2.07.24-2.09 2.09 0 2.06.1 2.26 2.39 2.14 5.88-.3 6.1 2.11 6 6.08-.09 2.78-1.32 4-4.14 4h-2.92c-3.31 0-4.59-1.57-4-4.9 1.8-.6 2-.45 2.72 1a3.31 3.31 0 0 0 1.68 1.19 3.78 3.78 0 0 0 1.43 0c2.1 0 2.43-.34 2.43-2.43s-.26-2.31-2.33-2.32h-2.75a3.39 3.39 0 0 1-3.33-3.33c-.35-5.1.62-6.15 5.73-6.15h1.3c3.13.02 4.44 1.57 3.91 4.79ZM103.47 78.54h-2.22c-1.14-2.22-2.3-2.78-4.79-2.26-1.4.29-1.19 1.43-1.21 2.43s.2 1.76 1.4 1.77h2.89c2.6.08 4 1.48 4.08 4.06a15.8 15.8 0 0 1-.23 3.44 3 3 0 0 1-3 2.48c-1.64.06-3.29.08-4.92 0-2.29-.12-3.41-2.1-2.87-5 1.25-.2 2.46-.48 2.75 1.42.06.4.82.83 1.34 1a5.54 5.54 0 0 0 1.73 0c2.2 0 2.4-.2 2.4-2.39s-.16-2.35-2.41-2.35a2.8 2.8 0 0 0-.29 0c-5.23.33-6-1.76-5.69-6.11A3.41 3.41 0 0 1 96 73.72h3.48c3.04-.01 4.44 1.64 3.99 4.82ZM39.37 90.41h-2.78V73.7h7.88a3 3 0 0 1 2.94 2.53 22.22 22.22 0 0 1 .09 4.89c-.21 2-1.49 2.94-3.46 3-1.4 0-2.8 0-4.2.07a1.85 1.85 0 0 0-.47.18Zm.08-14.13v5.34h3.71c1.19 0 1.63-.52 1.52-1.47-.16-1.31.8-3-1-3.84a.7.7 0 0 0-.29 0ZM90 73.83v2.42h-4.19v14.16h-2.89V76.32h-4.11v-2.49Z"/><path d="M68.68 81.28c0-.39-.09-.62-.1-.85V76.3c1.4 0 2.73-.08 4 0a1.49 1.49 0 0 1 1 1 7.64 7.64 0 0 1 0 2.86 1.8 1.8 0 0 1-1.31 1 28.71 28.71 0 0 1-3.59.12ZM53.65 82v-4c0-1.18.57-1.7 1.8-1.72 3.6 0 3.65 0 3.65 3.53v6.07c0 1.63-.47 2.07-2.05 2.09-3.38 0-3.39 0-3.39-3.32ZM39.45 76.28h3.93a.7.7 0 0 1 .29 0c1.81.88.85 2.53 1 3.84.11 1-.48 1.5-1.52 1.47s-2.39 0-3.71 0Z" class="cls-1"/></svg>