<svg xmlns="http://www.w3.org/2000/svg" id="Layer_1" data-name="Layer 1" viewBox="0 0 532.9 128"><defs><style>.cls-1{fill:#fff}</style></defs><path d="M531.85 14.3c-4.11 7.15-8.25 14.28-12.32 21.45a2.55 2.55 0 0 1-2.53 1.54c-7.87-.11-15.74-.09-23.61-.14-6.47 0-12.94-.15-19.41-.16a2.17 2.17 0 0 0-1.63.75c-3.59 6.12-7.09 12.28-10.61 18.44a4.69 4.69 0 0 0-.24.61l45.55.59c-.32.64-.5 1.06-.73 1.45q-15.48 27-30.94 54a2.66 2.66 0 0 1-2.71 1.55c-7.87-.07-15.78.43-23.61-.14-11.68-.86-23.34-.13-35-.48-.24 0-.47 0-.87-.09.17-.52.29-1 .47-1.4 2.73-6.75 5.5-13.48 8.2-20.24a1.72 1.72 0 0 1 1.9-1.28h35.35a2.2 2.2 0 0 0 2.25-1.32c1.47-2.71 3.05-5.37 4.58-8 .23-.41.43-.83.79-1.52H442.22c-6.47 0-10.33-3.26-11.48-9.66a16.23 16.23 0 0 1 1.95-11.41C441 44.37 449.2 29.9 457.41 15.42a2.54 2.54 0 0 1 2.59-1.49q35.06.06 70.12 0h1.73ZM409.66 37.16h-17.34a1.92 1.92 0 0 0-1.95 1.11c-1.78 3.21-3.6 6.39-5.49 9.53a2.23 2.23 0 0 1-1.53 1h-25.49a6 6 0 0 1-.72-.1 11.07 11.07 0 0 1 .43-1.06c3.51-6.1 6.84-12.32 10.58-18.28 4.54-7.25 10.73-12.62 19.22-14.85a17.19 17.19 0 0 1 4.29-.51h41a10.11 10.11 0 0 1 9 15.37c-7.72 13.55-15.47 27.07-23.19 40.63-1.63 2.85-3.33 5.65-4.9 8.53a2 2 0 0 1-2.09 1.12c-14.49 0-29 0-43.46-.05a2.53 2.53 0 0 0-2.6 1.5c-1.66 3.05-3.43 6-5.16 9.06-.18.32-.31.66-.56 1.17h45.69c-.25.57-.37 1-.57 1.3-3.93 6.87-7.88 13.72-11.79 20.59a1.93 1.93 0 0 1-1.91 1.16h-70.69c-.39 0-.77 0-1.33-.06.19-.42.31-.76.49-1.07 7.65-13.35 15.26-26.73 23-40 4.26-7.32 10.19-12.84 18.39-15.5a21.61 21.61 0 0 1 6.39-1c9.89-.1 19.79-.06 29.69 0a2.21 2.21 0 0 0 2.27-1.3c3.12-5.55 6.32-11.06 9.49-16.58.18-.53.44-.96.84-1.71ZM353.77 13.67c-1.6 2.83-3 5.37-4.5 7.91-6.41 11.17-12.85 22.33-19.21 33.52a3 3 0 0 1-3 1.78c-7.82-.08-15.64 0-23.46 0h-1.95l11.46-20a11.92 11.92 0 0 0-1.22-.13h-15.65a1.8 1.8 0 0 0-1.82 1Q280.7 61.62 267 85.53l-3.34 5.8h17.05a1.76 1.76 0 0 0 1.81-1.07q4.51-8 9.13-16a2.32 2.32 0 0 1 1.64-1c8.35-.06 16.7 0 25.06 0a11 11 0 0 1 1.19.14c-.83 1.46-1.57 2.78-2.33 4.11q-10 17.61-20 35.23a2.66 2.66 0 0 1-2.69 1.59c-17.82-.07-35.64-.06-53.45-.08-8.55 0-13.33-8.25-9.08-15.67q19.63-34.22 39.3-68.38c4.37-7.56 10.52-13.18 19-15.77a16.92 16.92 0 0 1 4.84-.75q28.53-.08 57.08 0ZM271.27 13.67c-1.42 2.49-2.67 4.7-3.93 6.9-2.83 4.93-5.7 9.85-8.49 14.82a2.22 2.22 0 0 1-2.26 1.3h-43.32a2.22 2.22 0 0 0-2.26 1.3c-2.95 5.25-6 10.47-9 15.7-.21.37-.38.75-.69 1.39h45.89C246 57.16 245 59 244 60.81c-3 5.31-6.13 10.61-9.14 16a2.25 2.25 0 0 1-2.28 1.32H189.7a2.41 2.41 0 0 0-2.46 1.43c-6.27 11-12.63 22-18.9 33a3.05 3.05 0 0 1-3.12 1.87c-8-.16-15.93-.18-23.89-.26-.33 0-.67 0-1.25-.09.27-.52.46-.94.68-1.32q23.58-41.23 47.24-82.4c4.1-7.11 9.81-12.55 17.62-15.4a20.37 20.37 0 0 1 6.78-1.23c19-.1 38.05-.06 57.08-.06ZM67.92 1c3.59.65 7.29 1 10.77 2 24.82 7.26 40.46 23.58 45.65 48.84 6.07 29.57-9.16 57.94-36.75 70.25A58.33 58.33 0 0 1 69 126.81a8.53 8.53 0 0 0-1.12.22h-10.1c-2.28-.37-4.59-.61-6.83-1.12C25.33 120 9.15 104.23 2.14 79A99.53 99.53 0 0 1 .4 69.07V58.93c.37-2.37.59-4.78 1.12-7.11C7.21 26.72 22.34 10.37 47 3c3.48-1 7.17-1.38 10.76-2ZM32.13 53.66c-3.36 5.36-6.5 10.4-9.75 15.58a8.13 8.13 0 0 0 1.22.21h38.25a2.39 2.39 0 0 0 1.68-1c3.76-6 7.45-12 11.16-17.93 1.16-1.87 2.34-3.72 3.67-5.84L84 53.81h-3.81c-.4 0-1 .09-1.16.35-1.57 2.35-3.06 4.74-4.72 7.37h13.23a2.08 2.08 0 0 1 2.09 1.17 37.56 37.56 0 0 1 2.09 3.47c1.2 2.77 3.15 3.8 6.14 3.35a37.59 37.59 0 0 1 5.23 0C94.76 56.18 86.63 43.2 78.41 30.09c-.37.48-.62.76-.82 1.07q-9.2 14.64-18.38 29.29a2.5 2.5 0 0 1-2.42 1.37c-6.18-.06-12.36 0-18.55 0-.51 0-1 0-1.64-.09a3.43 3.43 0 0 1 .21-.66c1.39-2.2 2.74-4.43 4.22-6.57a2.32 2.32 0 0 1 1.68-.75c3.23-.07 6.48-.15 9.7 0 1.89.09 3.12-.37 4-2.15a63.48 63.48 0 0 1 3.42-5.49C59.37 46 59.19 46 59 46H30.62a1.36 1.36 0 0 0-1 .34c-1.55 2.35-3.05 4.74-4.71 7.36Zm2.75-15.81c.51.07.7.12.88.12h30.12c.35 0 .88-.07 1-.31 1.55-2.36 3-4.76 4.61-7.26a4.88 4.88 0 0 0-.76-.14H40.47a1.51 1.51 0 0 0-1.12.44c-1.47 2.3-2.89 4.62-4.47 7.15Zm33.85 46.21c2.77-.5 2.89-.45 3.79 1.75.35.84.68 1.7 1 2.54 1 2.37 1 2.37 3.77 2l-2.75-6.65c.24-.21.41-.37.6-.52 2-1.52 2.46-6.31.81-8.17a3.07 3.07 0 0 0-1.78-1.14c-2.72-.12-5.44 0-8.2 0v16.54h2.74Zm-6.65-2v-4.97a3.37 3.37 0 0 0-3.46-3.33h-4.2a3.4 3.4 0 0 0-3.52 3.45q-.09 4.92 0 9.84a3.44 3.44 0 0 0 3.42 3.42c1.35.06 2.7.06 4 0 2.39-.08 3.68-1.43 3.72-3.86.06-1.51.04-3.05.04-4.61Zm-29.31-3.6c.54-3.22-.78-4.77-3.94-4.74h-1.31c-5.1 0-6.08 1-5.73 6.15a3.41 3.41 0 0 0 3.34 3.33h2.75c2.07 0 2.32.26 2.32 2.32S29.88 88 27.78 88a3.77 3.77 0 0 1-1.43 0 3.38 3.38 0 0 1-1.69-1.19c-.75-1.5-.92-1.65-2.71-1-.55 3.33.72 4.89 4 4.9h2.9c2.81 0 4-1.24 4.14-4 .13-4-.1-6.38-6-6.08-2.3.12-2.41-.08-2.39-2.14 0-1.85.24-2.08 2.09-2.09a7.77 7.77 0 0 1 1.87 0c.5.12 1.25.46 1.34.83.44 1.57 1.51 1.53 2.87 1.23Zm70.85.08c.46-3.18-.94-4.83-4-4.82h-3.47a3.4 3.4 0 0 0-3.57 3.39c-.3 4.35.45 6.44 5.69 6.11a2.8 2.8 0 0 1 .29 0c2.25 0 2.4.15 2.4 2.35S100.8 88 98.59 88a5.46 5.46 0 0 1-1.72 0c-.52-.17-1.28-.6-1.35-1-.29-1.9-1.5-1.62-2.75-1.42-.54 2.89.58 4.87 2.87 5 1.64.08 3.28.06 4.92 0a3.06 3.06 0 0 0 3-2.48 15.8 15.8 0 0 0 .22-3.44c0-2.58-1.47-4-4.08-4.06h-2.89c-1.2 0-1.4-.83-1.39-1.77s-.19-2.14 1.2-2.43c2.5-.52 3.66 0 4.79 2.26ZM39.53 90.41v-6c.29-.12.37-.18.46-.18 1.4 0 2.8 0 4.2-.07 2-.07 3.26-1.06 3.46-3a22.22 22.22 0 0 0-.09-4.89 3 3 0 0 0-2.94-2.53c-1.2-.07-2.41 0-3.62 0h-4.25v16.67Zm50.6-16.58H79v2.49h4.1v14.09H86V76.25h4.17Z"/><path d="M32.13 53.66H24.9c1.66-2.62 3.16-5 4.71-7.36a1.36 1.36 0 0 1 1-.34H59c.18 0 .36.06.82.13a63.48 63.48 0 0 0-3.42 5.49c-.88 1.78-2.11 2.24-4 2.15-3.22-.16-6.47-.08-9.7 0a2.32 2.32 0 0 0-1.68.75c-1.48 2.14-2.83 4.37-4.22 6.57a3.43 3.43 0 0 0-.21.66c.62 0 1.13.09 1.64.09h18.55a2.5 2.5 0 0 0 2.42-1.37q9.16-14.67 18.38-29.29c.2-.31.45-.59.82-1.07 8.23 13.13 16.36 26.11 24.7 39.4a37.59 37.59 0 0 0-5.23 0c-3 .45-4.94-.58-6.14-3.35a37.56 37.56 0 0 0-2.09-3.47 2.08 2.08 0 0 0-2.09-1.17c-3.77.06-7.53 0-11.3 0h-1.93c1.66-2.63 3.15-5 4.72-7.37.17-.26.76-.33 1.16-.35h3.81l-5.65-9.16c-1.33 2.12-2.51 4-3.67 5.84-3.71 6-7.4 12-11.16 17.93a2.39 2.39 0 0 1-1.68 1c-12.75.06-25.5 0-38.25 0a8.13 8.13 0 0 1-1.22-.21c3.25-5.1 6.39-10.16 9.75-15.5Z" class="cls-1"/><path d="M34.88 37.85c1.58-2.53 3-4.86 4.5-7.15a1.51 1.51 0 0 1 1.12-.44h30.26a4.88 4.88 0 0 1 .76.14c-1.57 2.5-3.06 4.9-4.61 7.26-.15.24-.68.31-1 .31H35.79c-.21.03-.4-.05-.91-.12ZM68.73 84.06v6.35H66V73.8c2.76 0 5.48-.07 8.2 0A3.07 3.07 0 0 1 76 75c1.65 1.86 1.14 6.65-.81 8.17-.19.15-.36.31-.6.52l2.75 6.65c-2.8.39-2.8.39-3.77-2-.34-.84-.67-1.7-1-2.54-.95-2.19-1.07-2.24-3.84-1.74Zm.11-2.78a28.76 28.76 0 0 0 3.62 0 1.82 1.82 0 0 0 1.31-1 7.86 7.86 0 0 0 0-2.86 1.49 1.49 0 0 0-1-1c-1.31-.13-2.65 0-4 0v4.13a7.73 7.73 0 0 0 .07.73ZM62.08 82v4.63c0 2.43-1.33 3.78-3.72 3.86h-4a3.44 3.44 0 0 1-3.42-3.42q-.09-4.92 0-9.84a3.4 3.4 0 0 1 3.52-3.45h4.2a3.37 3.37 0 0 1 3.46 3.33V82Zm-8.28 0v2.6c0 3.35 0 3.36 3.4 3.32 1.57 0 2-.46 2-2.09v-6.07c0-3.56 0-3.57-3.65-3.53-1.23 0-1.78.54-1.79 1.72.04 1.38.05 2.73.04 4.05ZM32.77 78.46c-1.36.3-2.43.34-2.81-1.33-.09-.37-.84-.71-1.34-.83a7.77 7.77 0 0 0-1.87 0c-1.85 0-2.08.24-2.09 2.09 0 2.06.09 2.26 2.39 2.14 5.87-.3 6.1 2.11 6 6.08-.1 2.78-1.33 4-4.14 4H26c-3.31 0-4.58-1.57-4-4.9 1.79-.6 2-.45 2.71 1a3.38 3.38 0 0 0 1.69 1.19 3.77 3.77 0 0 0 1.43 0c2.1 0 2.42-.34 2.42-2.43s-.25-2.31-2.32-2.32h-2.75a3.41 3.41 0 0 1-3.34-3.33c-.35-5.1.63-6.15 5.73-6.15h1.31c3.12.02 4.43 1.57 3.89 4.79ZM103.62 78.54h-2.22c-1.13-2.22-2.29-2.78-4.79-2.26-1.39.29-1.19 1.43-1.2 2.43s.19 1.76 1.39 1.77h2.89c2.61.08 4 1.48 4.08 4.06a15.8 15.8 0 0 1-.22 3.44 3.06 3.06 0 0 1-3 2.48c-1.64.06-3.28.08-4.92 0-2.29-.12-3.41-2.1-2.87-5 1.25-.2 2.46-.48 2.75 1.42.07.4.83.83 1.35 1a5.46 5.46 0 0 0 1.72 0c2.21 0 2.4-.2 2.4-2.39s-.15-2.35-2.4-2.35a2.8 2.8 0 0 0-.29 0c-5.24.33-6-1.76-5.69-6.11a3.4 3.4 0 0 1 3.57-3.39h3.47c3.04.07 4.44 1.72 3.98 4.9ZM39.53 90.41h-2.78V73.7h7.87a3 3 0 0 1 2.94 2.53 22.22 22.22 0 0 1 .09 4.89c-.2 2-1.49 2.94-3.46 3-1.4 0-2.8 0-4.2.07-.09 0-.17.06-.46.18Zm.07-14.13v5.34h3.72c1 0 1.62-.52 1.51-1.47-.15-1.31.81-3-1-3.84a.66.66 0 0 0-.28 0ZM90.13 73.83v2.42H86v14.16h-2.93V76.32H79v-2.49Z" class="cls-1"/><path d="M68.84 81.28a7.73 7.73 0 0 1-.1-.85V76.3c1.39 0 2.73-.08 4 0a1.49 1.49 0 0 1 1 1 7.86 7.86 0 0 1 0 2.86 1.82 1.82 0 0 1-1.31 1 28.76 28.76 0 0 1-3.59.12ZM53.8 82v-4c0-1.18.56-1.7 1.79-1.72 3.61 0 3.65 0 3.65 3.53v6.07c0 1.63-.47 2.07-2 2.09-3.39 0-3.4 0-3.4-3.32ZM39.6 76.28h3.94a.66.66 0 0 1 .28 0c1.82.88.86 2.53 1 3.84.11 1-.47 1.5-1.51 1.47h-3.72Z"/></svg>