<svg xmlns="http://www.w3.org/2000/svg" xml:space="preserve" style="enable-background:new 0 0 600.1 78.8" viewBox="0 0 600.1 78.8"><path d="M89.5.7h20.7v77.5H89.5zM232.4.9h25.4l29.9 77.8H265l-5.8-16.6h-29.1l-6.2 16.6h-21.1L232.4.9M245 17h-.2l-10 30.3h19.5L245 17zM296.2.9h35.7c14.6 0 25.3 6.4 25.3 19.7 0 9.8-5 15.3-13.6 18.2v.3c10.4 2.1 15.7 7.7 15.7 17.2 0 18.6-16.3 22.5-30.3 22.5h-32.7V.9M316.9 64h6.1c7.5 0 15.4-1.1 15.4-9 0-8.5-8.1-9.3-15.2-9.3h-6.3V64m0-32.3h5.8c6.8 0 13.7-1.7 13.7-8.3 0-7.1-6.6-7.8-13.5-7.8h-6v16.1zM388 49.4 359.1.9H383l15.3 31.3 15-31.3h23.9l-28.5 48.5v29.3H388V49.4M462.2 16.3H443V.9h59.1v15.4h-19.2v62.4h-20.7V16.3M511 .9h54.9v14.8h-34.2v16H564v14.7h-32.3V64h35.4v14.7H511V.9M43.3 16.6C29.6 17.7 22 26.8 22 38.5c0 11.4 10.6 21 20.7 21h6s2.5 0 2.5-2.4V32.7h21.3c0 13.7-.1 44.7-.1 44.7H39.3C16.4 77.4 0 58.4 0 38.6 0 17.1 17.8-.8 40 0l31.7.1v16.6H43.3M165 16.6c-13.8 1.1-21.3 10.2-21.3 21.9 0 11.4 10.5 21 20.8 21h5.9s2.5 0 2.5-2.4V32.7h21.2v44.7H161c-22.9 0-39.2-19-39.2-38.8 0-21.5 17.7-39.4 40-38.6h31.6v16.6H165M579.6 3.3h-3.7V1.8h9.3v1.5h-3.8v10.5h-1.8V3.3M586.9 1.8h2.8l3.8 10 3.7-10h2.9v12h-1.8V3.4l-4 10.4h-1.7l-3.9-10.4h-.1v10.4h-1.7v-12"/></svg>