<svg xmlns="http://www.w3.org/2000/svg" id="Layer_1" data-name="Layer 1" viewBox="0 0 494.8 128"><defs><style>.cls-1{fill:#3fb4e7;fill-rule:evenodd}</style></defs><path d="M12.5 97.4V25H0v72.4h12.5zM45 44.7a26.5 26.5 0 0 0-27.2 26.9A26.9 26.9 0 0 0 45 98.7a27 27 0 1 0 0-54Zm0 41.8a14.8 14.8 0 1 1 14.6-15c0 8.3-6.1 15-14.7 15ZM104.3 44.7c-15.5 0-27.4 11.7-27.4 27.1s12 27 27 27a26.7 26.7 0 0 0 27.2-27A23.7 23.7 0 0 0 127 58l4-1.6v-10H113a20.5 20.5 0 0 0-8.8-1.7Zm0 41.8a14.8 14.8 0 1 1 14.6-15 14.8 14.8 0 0 1-14.7 15ZM118.9 100.6a14.6 14.6 0 0 1-14.7 14.6 14.4 14.4 0 0 1-14.6-14.6H77c0 15.4 12 26.8 27 26.8s27.5-11.7 27.5-26.8ZM136.4 46.3v51.1h12.5V46.3h-12.5zM143 40.5c5 0 8.9-3.8 8.9-8.3-.6-5-4.3-8.8-8.8-8.8s-8.3 3.8-8.3 8.8a8.3 8.3 0 0 0 8.3 8.3ZM162 46.3h-6.7v11.2h6.7v39.6h12.5V57.5h7.1V46.3h-7.1V30.6H162v15.7zM209.8 44.7c-15.4 0-26.8 11.7-26.8 27.1s10.4 26.4 26.9 26.4a32.6 32.6 0 0 0 23.1-9.6l-8.8-8.8a19.6 19.6 0 0 1-14 6.7c-7.3 0-12.3-4.3-13.9-10.4h39.6v-3c0-16.7-10.9-28.4-26-28.4ZM196 66.5c1.9-6.6 6.7-10.4 13.3-10.4s11.7 3.8 13 10.4ZM267 45a26.5 26.5 0 0 0-27.1 26.9A26.7 26.7 0 0 0 267 98.7a29.3 29.3 0 0 0 21.8-10.1l-8.8-8.8c-3.5 3.7-8 6.7-13 6.7-8.2 0-14-6.4-14-14.7a13.8 13.8 0 0 1 14-14.6 17 17 0 0 1 13 6.7l8.8-8.8c-5-6.4-12.5-10.1-21.8-10.1ZM439 .6a62 62 0 1 0 0 123.9V98.7a36.2 36.2 0 0 1 0-72.3V.6ZM495.5 51.4h-55.6v25.2h30v30.1h25.6V51.4zM342.5 67.3c.6-14-8.5-22.6-20.4-22.6-6.4 0-11.7 2.1-15.5 6.4V24.8h-12.5V97h12.5V69.5c0-7.5 4.5-12.3 12.3-12.3 7.1 0 11.1 4.5 11.1 12.2v27.7h12.5V67.3Z" class="cls-1"/></svg>