<svg xmlns="http://www.w3.org/2000/svg" data-name="Layer 1" viewBox="0 0 128 128"><path d="M103.38 71c0 4.8.71 17.89.71 17.89-14.68 16.55-29.28 20.56-29.28 20.56 18.43-17.09 12-53.23 12-53.23l-24 20.83-16.11-17a71.77 71.77 0 0 1 2-22.43L64 54.19l60.52-53c-24.84 10-46.06 8.06-53.14 6.72s-17.22-1.6-21-.13-11.88 4-11.88 4C40.37 8.53 52.92.12 52.92.12 42.11 4.79 37.3 2.79 29.16 6 7 20.68 5.66 33.36 5.66 33.36s.13 53.13-.13 57.81-3.61 16-3.61 16l23.77-19.34s.13-19.22-.14-26.43-2-19.85-2-19.85c6.67-10.68 29.28-21.18 29.28-21.18-13.53 12.46-12.1 33.11-12.1 33.11l1.69 40.67-38.54 33.73c46.28-8.9 66.13-4.72 86.15-4 28.93-7.12 32.13-29.72 32.13-29.72s.36-58.74.36-61.06 3.56-10.94 3.56-10.94l-22.34 19.4s-.36 24.64-.36 29.44Z" style="fill:#fff"/></svg>