<svg xmlns="http://www.w3.org/2000/svg" data-name="Layer 1" viewBox="0 0 128 128"><defs><radialGradient id="a" cx="213.83" cy="2.94" r="119.78" gradientUnits="userSpaceOnUse"><stop offset="0" stop-color="#fff33b"/><stop offset=".04" stop-color="#fee72e"/><stop offset=".12" stop-color="#fed51b"/><stop offset=".2" stop-color="#fdca10"/><stop offset=".28" stop-color="#fdc70c"/><stop offset=".67" stop-color="#f3903f"/><stop offset=".89" stop-color="#ed683c"/></radialGradient></defs><path d="M103.46 71c0 4.82.71 17.92.71 17.92-14.71 16.59-29.34 20.6-29.34 20.6 18.46-17.12 12-53.32 12-53.32L62.8 77.09l-16.14-17a72 72 0 0 1 2-22.47L64 54.17 124.59 1C99.71 11 78.45 9.1 71.36 7.76s-17.26-1.61-21-.14-11.91 4-11.91 4C40.33 8.43 52.9 0 52.9 0 42.06 4.68 37.25 2.68 29.09 5.89 6.89 20.6 5.55 33.3 5.55 33.3s.13 53.24-.13 57.92-3.61 16-3.61 16l23.8-19.4s.14-19.26-.13-26.48-2-19.88-2-19.88c6.69-10.7 29.34-21.22 29.34-21.22-13.56 12.53-12.14 33.22-12.14 33.22l1.7 40.75L3.77 128c46.36-8.92 66.25-4.73 86.31-4 29-7.14 32.19-29.78 32.19-29.78s.36-58.86.36-61.17 3.56-11 3.56-11l-22.38 19.46s-.35 24.7-.35 29.49Z" style="fill:url(#a)"/></svg>