<svg xmlns="http://www.w3.org/2000/svg" xmlns:xlink="http://www.w3.org/1999/xlink" id="Layer_1" data-name="Layer 1" viewBox="0 0 424.76 128"><defs><radialGradient id="radial-gradient" cx="197.58" cy="11.47" r="111.62" gradientUnits="userSpaceOnUse"><stop offset="0" stop-color="#fff33b"/><stop offset=".14" stop-color="#ffd015"/><stop offset=".19" stop-color="#fecb10"/><stop offset=".28" stop-color="#fdc70c"/><stop offset=".67" stop-color="#f3903f"/><stop offset=".89" stop-color="#ed683c"/></radialGradient><radialGradient id="radial-gradient-2" cx="197.58" cy="11.47" r="111.62" gradientUnits="userSpaceOnUse"><stop offset="0" stop-color="#fff33b"/><stop offset=".04" stop-color="#fee72e"/><stop offset=".12" stop-color="#fed51b"/><stop offset=".2" stop-color="#fdca10"/><stop offset=".28" stop-color="#fdc70c"/><stop offset=".67" stop-color="#f3903f"/><stop offset=".89" stop-color="#ed683c"/></radialGradient><radialGradient xlink:href="#radial-gradient-2" id="radial-gradient-3" cx="197.58" cy="11.47" r="111.62"/><radialGradient xlink:href="#radial-gradient-2" id="radial-gradient-4" cx="197.58" cy="11.47" r="111.62"/><radialGradient xlink:href="#radial-gradient-2" id="radial-gradient-5" cx="197.58" cy="11.47" r="111.62"/><radialGradient xlink:href="#radial-gradient-2" id="radial-gradient-6" cx="197.58" cy="11.47" r="111.62"/><radialGradient xlink:href="#radial-gradient-2" id="radial-gradient-7" cx="197.58" cy="11.47" r="111.62"/><radialGradient xlink:href="#radial-gradient-2" id="radial-gradient-8" cx="197.58" cy="11.47" r="111.62"/><radialGradient xlink:href="#radial-gradient-2" id="radial-gradient-10" cx="197.58" cy="11.47" r="111.62"/><radialGradient xlink:href="#radial-gradient-2" id="radial-gradient-12" cx="197.58" cy="11.47" r="111.62"/><radialGradient xlink:href="#radial-gradient-2" id="radial-gradient-13" cx="197.58" cy="11.47" r="111.62"/><radialGradient xlink:href="#radial-gradient-2" id="radial-gradient-14" cx="197.58" cy="11.47" r="111.62"/><radialGradient xlink:href="#radial-gradient-2" id="radial-gradient-15" cx="197.58" cy="11.47" r="111.62"/><radialGradient xlink:href="#radial-gradient-2" id="radial-gradient-16" cx="197.58" cy="11.47" r="111.62"/><radialGradient xlink:href="#radial-gradient-2" id="radial-gradient-18" cx="197.58" cy="11.47" r="111.62"/><radialGradient xlink:href="#radial-gradient-2" id="radial-gradient-19" cx="197.58" cy="11.47" r="111.62"/><radialGradient xlink:href="#radial-gradient-2" id="radial-gradient-20" cx="197.58" cy="11.47" r="111.62"/><radialGradient xlink:href="#radial-gradient-2" id="radial-gradient-21" cx="197.58" cy="11.47" r="111.62"/><style>.cls-3{fill:url(#radial-gradient-2)}.cls-5{fill:url(#radial-gradient-4)}.cls-9{fill:url(#radial-gradient-8)}.cls-16{fill:url(#radial-gradient-18)}</style></defs><path d="m216.68 38.82-5.46-11.09-5.63 11.28 5.83 10.91 5.26-11.1z" style="fill:#6acce2"/><path d="M180.81 109.39a6.45 6.45 0 0 0-6.26 2.84l-5.73 11.13h5.92v-2.18h5.11v2.18h5.36s-6.2-10-6.11-11.28 1.71-2.69 1.71-2.69Zm-5.51 9.17 1.7-3.46 1.87 3.46Z" style="fill:url(#radial-gradient)"/><path d="M155.17 117.47c1.81 0 1.68-2.65 1.68-2.65 0-3.55-4.11-3.55-4.11-3.55h-3.68l.66-2.34-5.24 3.74v10.84h8.17c2.68 0 4.2-1.27 4.2-3.42a2.56 2.56 0 0 0-1.68-2.62Zm-2.95 3.21h-3.16v-2.12h2c1.12 0 2.32.37 2.32 1.25s-1.16.87-1.16.87Zm0-4.52h-3.16V114h2c1.12 0 2.32.37 2.32 1.25s-1.16.91-1.16.91Z" class="cls-3"/><path d="M94.72 74.91c0 4.48.67 16.7.67 16.7-13.71 15.45-27.34 19.19-27.34 19.19 17.2-16 11.22-49.69 11.22-49.69L56.83 80.56l-15-15.87a67 67 0 0 1 1.83-20.94L57.91 59.2l56.5-49.52C91.23 19 71.42 17.2 64.81 16s-16.08-1.49-19.57-.12-11.09 3.74-11.09 3.74c1.74-3 13.46-10.85 13.46-10.85-10.09 4.32-14.61 2.45-22.18 5.44C4.74 27.92 3.49 39.76 3.49 39.76s.12 49.6-.12 54-3.37 15-3.37 15l22.18-18.15s.13-18-.12-24.68-1.87-18.53-1.87-18.53c6.23-10 27.34-19.77 27.34-19.77-12.63 11.63-11.3 30.91-11.3 30.91l1.58 38L1.83 128c43.2-8.31 61.73-4.4 80.43-3.74 27-6.65 30-27.75 30-27.75s.34-54.84.34-57 3.32-10.22 3.32-10.22L95.05 47.4s-.33 23.02-.33 27.51Z" style="fill:url(#radial-gradient-3)"/><path d="M181.47 61.36S168.88 37.85 184.71 15l-18.32 1-11.47 17L144 16.08 128.54 15s8.31 20.44 0 46.36h19.28s-4.74-8.14-4-23.84l11 15.7 11-15.95s1.38 13.54-3.61 24.09Z" class="cls-5"/><path d="M214.62 64.19c25.18-4.16 27.5-32.08 16.79-42.3s-26.34-4.73-26.34-4.73c1.49-3 9.47-6 9.47-6-5.15-.17-18 .49-26.26 13.54-9.14 16.39 1.16 43.64 26.34 39.49Zm-5.47-41.34c15.18-1.85 21.11 14.74 15.53 26-5 8.94-14.31 11.24-17.45 11.13 0 0 7.81-5.26 8.72-7.31 0 0-9.21 3.68-15.76-3.33s-6.34-24.62 8.96-26.49Z" style="fill:url(#radial-gradient-5)"/><path d="M236.81 61.36H267s13.08-.66 13.46-13.13a11.09 11.09 0 0 0-6.86-10.44s5.49-3.89 4.74-12.61-12.09-11-18.57-11h-22.32s15.06 23.67-.64 47.18Zm23.93-38.14c2 .17 6.48.5 6.73 5.4a5 5 0 0 1-4.41 5.38h-7.81c.42-3.33-1.24-10.81-1.24-10.81s4.73-.13 6.73.03Zm-5.16 19s4.82.08 6.82 0 7.39.58 6.48 5.65-6.4 4.74-6.4 4.74h-9.14c1.75-2.47 2.24-10.36 2.24-10.36Z" style="fill:url(#radial-gradient-6)"/><path d="M301.87 61.36c-7.65-25.59-.84-46.69-.84-46.69h-18.69c6.9 33.23 0 46.69 0 46.69Z" style="fill:url(#radial-gradient-7)"/><path d="M341.13 61.36c4.61-5.57 4.23-13.92 4.23-13.92-5.36 4.2-14.08 4.41-14.08 4.41h-9.22s-.13-3.12-.13-11.84 5.86-17.7 5.86-17.7c-5.11 1.12-11.79 6.28-11.79 6.28 2.24-7.93 15.33-17.43 15.33-17.43-5 1.81-25 3.51-25 3.51 6.35 28.37-.87 46.69-.87 46.69ZM424.76 0c-12.34 13.09-29.67 18.45-33 14.08s2.37-7.6 2.37-7.6C378.52 7.48 358.57 18 358.57 18l8.73-9.1-18.95 5.82c6.36 24.13-1 47.65-1 47.65h36.27C397.83 55.09 399 44 399 44a59.62 59.62 0 0 0-9.35 5.36c-6.23 4.11-19.82 4-23.06 2.11s-2.24-9.72-2.24-9.72h14l8.28-10.09c-3.3 2.12-17.38 1.87-20 1.62s-2.24-4.74-1.74-7.11c3.74-4.86 14.83-5 20.06-4.36s4.24 8.85 4.24 8.85C414.91 19.94 424.76 0 424.76 0Z" class="cls-9"/><path d="M147.73 97.09h-5.65c-3.49-21.52 2.5-29.16 2.5-29.16H129a64 64 0 0 1 2.41 19.94c-.33 9-6.82 20.85-6.82 20.85 4.49-1.58 15.71-8.56 15.71-8.56l-6.65 7.4 20.94-2.74c4.57-3.66 4.24-12.47 4.24-12.47a15.83 15.83 0 0 1-11.1 4.74Z" style="fill:url(#radial-gradient-10)"/><path d="m175.82 97-1.25-7.48s9.14-.91 14 2l-.16-10a32.58 32.58 0 0 1-13.63 1.91s-.33-6.9.67-7.48l16 .42 5-8.39h-33.26s6.56 17.53 0 36.47h32.92s-5.42-6.15-5.67-7.89c0-.05-12.63.7-14.62.44Z" class="cls-5"/><path d="M228.91 105.82s5-8.56 4.07-22.61h-13.62l-4.78 8.23h8.85s-1.5 5.07-6.57 5.73-11.86-2.9-11.63-10.47S212 75 219.69 75.65a45.09 45.09 0 0 1 12.88 2.91l-3.66-10.63H213s-15.17-.59-16.93 17.94c0 0-1.51 17 14.61 20.19h7.64l-2.32 3.33Z" style="fill:url(#radial-gradient-12)"/><path d="M267.38 78.06c-.16-6.64-3.4-10.13-3.4-10.13h-27.17s6.56 18.77 0 36.47H263s3.9-4.07 4.4-9.3a43.44 43.44 0 0 1-14 2.07l-4.65-.25a28.84 28.84 0 0 0 .5-7.14c5.07-.33 12 1.16 12 1.16v-8.72c-2.65 1.16-12 1.08-12 1.08a72.36 72.36 0 0 0-.83-7.48h9a22.61 22.61 0 0 1 9.96 2.24Z" style="fill:url(#radial-gradient-13)"/><path d="M283.05 86.16s6.23 4.49 11.34 18.24h14.7s-5.23-19.77 0-36.47h-15.82s4 9 2.86 18.23c0 0-8-8.76-12.34-18.23h-13.21s6.11 16 0 36.48h14.71a57.64 57.64 0 0 1-2.24-18.25Z" style="fill:url(#radial-gradient-14)"/><path d="M325.86 67.92h-13.09s3.68 18.81 0 36.48h19s17.41-.64 17.85-17.65-17.72-18.83-23.76-18.83Zm-.5 28-.44-19.07s13.65-1.37 13.65 9.32-13.21 9.74-13.21 9.74Z" style="fill:url(#radial-gradient-15)"/><path d="m379.8 79.31 2.95.39s9.19-10.76 12.51-18.34l-13.71 7.4s-29.33-1.42-32.24-.84c0 0 6.23 11.47 5.82 18.24a27.36 27.36 0 0 0 9.55 4.2A28.73 28.73 0 0 1 374 94.1h-1.71s.13 4.49-6.68 4-11.22-5.74-11.22-5.74a36 36 0 0 1-7 12.05l34.6 2.33 12.55-9.22s-7.14.74-10.63 2.41c0 0 5.15-11.22-7-15.87-9.39-3.25-13.55-2.66-13.55-6.65s12.37-3.09 16.44 1.9Z" style="fill:url(#radial-gradient-16)"/><path d="m207.45 117.37-5.54-6.07h-3.77v10.44l-.62 1.65h4.76v-5.89l4.89 5.89h4.49v-9.51s.22-2.86 1.28-3.86l-5.49 1.15Z" class="cls-3"/><path d="M225 117.72c0 5 5.05 5.64 5.05 5.64h8.22v-6.69l-5.58.61c1.69.94 2 3 .38 3-2.37 0-3.77-.75-3.77-2.9s2.46-3.27 4.39-3.27a14.14 14.14 0 0 1 4.61 1.22l2.06-5.42a52.54 52.54 0 0 1-9.85 1c-2.83-.02-5.51 1.85-5.51 6.81Z" class="cls-16"/><path d="M305.12 109.39a6.46 6.46 0 0 0-6.27 2.84l-5.73 11.13H299v-2.18h5.11v2.18h5.36s-6.2-10-6.11-11.28 1.76-2.69 1.76-2.69Zm-5.52 9.17 1.65-3.46 1.87 3.46Z" style="fill:url(#radial-gradient-19)"/><path d="M281.16 114.82c0-3.55-4.12-3.55-4.12-3.55h-3.67l.65-2.34-5.23 3.74v10.84H277c2.68 0 4.21-1.27 4.21-3.42a2.56 2.56 0 0 0-1.69-2.62c1.76 0 1.64-2.65 1.64-2.65Zm-4.64 5.86h-3.15v-2.12h1.95c1.12 0 2.32.37 2.32 1.25s-1.12.87-1.12.87Zm0-4.52h-3.15V114h1.95c1.12 0 2.32.37 2.32 1.25s-1.12.91-1.12.91Z" style="fill:url(#radial-gradient-20)"/><path d="m331.76 117.37-5.55-6.07h-3.77v10.44l-.62 1.65h4.76v-5.89l4.9 5.89H336v-9.51s.22-2.86 1.28-3.86l-5.48 1.15Z" style="fill:url(#radial-gradient-21)"/><path d="M349.33 117.72c0 5 5.05 5.64 5.05 5.64h8.22v-6.69l-5.57.61c1.68.94 2 3 .37 3-2.37 0-3.77-.75-3.77-2.9s2.46-3.27 4.39-3.27a14.14 14.14 0 0 1 4.62 1.22l2.05-5.42a52.52 52.52 0 0 1-9.84 1c-2.85-.02-5.52 1.85-5.52 6.81Z" class="cls-16"/></svg>