<svg xmlns="http://www.w3.org/2000/svg" id="Layer_1" data-name="Layer 1" viewBox="0 0 128 128"><defs><style>.cls-1{fill:#77bb43}</style></defs><path d="M121.28 64.25c0 25-17.39 46.17-41.18 52.85l-8.95-11.73-5.45-7.15V83.93h13.75v19.25a43.09 43.09 0 0 0 22.67-19.25 40.45 40.45 0 0 0 4.61-13.12H79.45V57.53h27.27c-2.46-14.85-13.07-27.09-27.27-32.36V44.5H65.7V9.22a59.19 59.19 0 0 1 13.75 2c24.13 6.48 41.83 27.78 41.83 53.03Z" class="cls-1"/><path d="M123 40a61.65 61.65 0 0 0-13.72-19.58A63.84 63.84 0 0 0 88.9 7.22a66.5 66.5 0 0 0-49.81 0 63.91 63.91 0 0 0-20.34 13.2A61.33 61.33 0 0 0 5 40a59.75 59.75 0 0 0 0 48 61.26 61.26 0 0 0 13.72 19.59 64.08 64.08 0 0 0 20.34 13.2 66.66 66.66 0 0 0 41.73 2.69 64.85 64.85 0 0 0 8.08-2.69 64 64 0 0 0 20.35-13.2A61.58 61.58 0 0 0 123 88a59.75 59.75 0 0 0 0-48Zm-40.74 80q-1.7.51-3.42.93L76.61 118l-9.25-12.13-1.66-2.18-1.7-2.29-1.81 2.37-1.59 2.08L51.36 118l-2.19 2.88c-1.15-.27-2.3-.59-3.42-.93C21 112.45 3.05 90.21 3.05 64c0-32.33 27.34-58.63 61-58.63S124.94 31.66 124.94 64c0 26.21-17.94 48.46-42.68 56Z" class="cls-1"/><path d="M62.18 9.22v13.44L49.24 44.5l-7.72 13-15.84 26.76a43.09 43.09 0 0 0 22.81 19V70.81h13.69v27.54l-5.4 7.08-8.89 11.66a56.59 56.59 0 0 1-37.56-33.62l10.07-17 13-22 10.27-17.34A42.89 42.89 0 0 0 25.44 44.5h-14.9C18.59 24.37 38.58 9.94 62.18 9.22Z" class="cls-1"/></svg>