<svg xmlns="http://www.w3.org/2000/svg" id="Layer_1" data-name="Layer 1" viewBox="0 0 476 128"><defs><style>.cls-1{fill:#77bb43}.cls-2{fill:#323031}</style></defs><path d="M125.57 64.25c0 25.84-17.94 47.64-42.48 54.53l-9.23-12.1-5.63-7.37V84.57h14.19v19.85a44.51 44.51 0 0 0 23.39-19.85A41.57 41.57 0 0 0 110.56 71H82.42V57.32h28.14C108 42 97.08 29.38 82.42 23.94v19.94H68.23V7.48a61.21 61.21 0 0 1 14.19 2.07c24.89 6.68 43.15 28.64 43.15 54.7Z" class="cls-1"/><path d="M127.32 39.24A63.17 63.17 0 0 0 113.16 19a65.89 65.89 0 0 0-21-13.62 68.68 68.68 0 0 0-51.4 0A65.89 65.89 0 0 0 19.8 19 63.14 63.14 0 0 0 5.65 39.24a61.52 61.52 0 0 0 0 49.51A63.29 63.29 0 0 0 19.8 109a66.06 66.06 0 0 0 21 13.62 67.2 67.2 0 0 0 8.33 2.77 69 69 0 0 0 34.72 0 67.49 67.49 0 0 0 8.35-2.77 66.06 66.06 0 0 0 21-13.62 63.32 63.32 0 0 0 14.16-20.21 61.63 61.63 0 0 0 0-49.51Zm-42 82.48c-1.17.36-2.35.67-3.54 1v-.05l-2.25-3L70 107.16l-1.72-2.25-1.76-2.33L64.6 105l-1.6 2.18-9.52 12.48-2.27 3c-1.19-.28-2.37-.6-3.53-1C22.14 114 3.61 91 3.61 64c0-33.36 28.2-60.5 62.87-60.5s62.87 27.14 62.87 60.5c0 27-18.53 50-44.02 57.72Z" class="cls-1"/><path d="M64.6 7.49v13.86L51.25 43.88l-8 13.44L26.94 84.9a44.55 44.55 0 0 0 23.54 19.65V71H64.6v28.43l-5.6 7.31-9.17 12a58.34 58.34 0 0 1-38.71-34.66L21.5 66.53l13.41-22.65L45.51 26a44.15 44.15 0 0 0-18.8 17.92H11.33C19.64 23.11 40.26 8.22 64.6 7.49ZM202.15 22.45v-4.44H164.1v9.96h21.25L162.6 59.82v4.57h39.96V54.18H179.6l22.55-31.73zM222.95 45.63h24.21v-9.5h-24.21v-8.29h25.57v-9.83h-37.37v46.38h38.12v-9.88h-26.32v-8.88zM290.12 34.59l.12 10.71-20.74-27.1-.15-.19h-10.74v46.38h12.07V48.08l-.12-10.85 20.89 27.16h10.74V18.01h-12.07v16.58zM325.44 45.63h24.21v-9.5h-24.21v-8.29h25.57v-9.83h-37.37v46.38h38.12v-9.88h-26.32v-8.88zM359.17 28.23h14.52v36.16h12.14V28.23h14.59V18.01h-41.25v10.22zM409.14 18.01h12.14v46.38h-12.14zM468.35 50.28l-.35.33a15.47 15.47 0 0 1-5.3 3.28 18.26 18.26 0 0 1-6.37 1.11 15.39 15.39 0 0 1-7.33-1.7 12.06 12.06 0 0 1-5-4.85 14.73 14.73 0 0 1-1.75-7.25A14.69 14.69 0 0 1 444 34a12.06 12.06 0 0 1 5-4.89 16.27 16.27 0 0 1 18 2.3l.33.31 7.57-7.21-.36-.33A26.21 26.21 0 0 0 456.06 17a29.39 29.39 0 0 0-13.45 3 22.32 22.32 0 0 0-9.23 8.56 24.31 24.31 0 0 0-3.3 12.66 24.53 24.53 0 0 0 3.23 12.64 22.16 22.16 0 0 0 9.19 8.55 29.89 29.89 0 0 0 13.76 3 27.1 27.1 0 0 0 18.94-7.2l.35-.31Z" class="cls-1"/><path d="M166.63 96.69h18.18v-4.3h-18.18v-9.23h19.06v-4.39h-23.64v31.75h24.18v-4.44h-19.6v-9.39zM209.31 92.09 209 92c-5.33-1-8.56-1.73-8.56-4.47 0-3.84 5.21-4.86 8.26-4.86 3.74 0 6.62.65 8.48 3.49l.57.87 3.95-2.22-.72-1c-3.22-4.55-7.23-5.49-12.26-5.49-1.69 0-7.44.27-10.72 3.62a7.63 7.63 0 0 0-2.19 5.69c0 6.38 6.58 7.6 12.39 8.68 5.63 1 9.32 2 9.28 5.23 0 4.62-6.13 5.11-8.76 5.11-3.52 0-7.95-1.63-9.61-4.75l-.5-1-4.15 2 .55 1c2.74 5.16 8.88 7 13.71 7 8.34 0 13.35-3.51 13.4-9.38-.03-7.1-6.82-8.34-12.81-9.43ZM246.27 78.77h-14.73v31.75h4.64v-10.2h10.09c7.37 0 11.23-5.42 11.23-10.77s-3.86-10.78-11.23-10.78Zm-10.09 4.35h10.09a6.26 6.26 0 0 1 6.63 6.44 6.62 6.62 0 0 1-1.65 4.44 6.54 6.54 0 0 1-5 2h-10.07ZM282.61 78.3c-11.57 0-16.76 8.19-16.76 16.3 0 7.91 5.24 16.43 16.76 16.43s16.73-8.47 16.78-16.34a16.39 16.39 0 0 0-4.55-11.76c-3.01-3.03-7.24-4.63-12.23-4.63Zm-8.9 7.7a12.22 12.22 0 0 1 8.9-3.3c8.45 0 12.23 6 12.23 12 0 5.8-3.83 12-12.23 12s-12.13-6.23-12.17-12a12 12 0 0 1 3.27-8.7ZM332.86 96.12a9.8 9.8 0 0 0 2.74-7.05c-.06-5.12-4-10.3-11.32-10.3H309.5v31.75h4.64V99.34H321l10.73 11.18H338L326.87 99a10.67 10.67 0 0 0 5.99-2.88Zm-18.72-13h10.14a6.57 6.57 0 0 1 4.84 1.8 5.67 5.67 0 0 1 1.61 4.1c0 3.89-2.36 5.93-6.71 5.93h-9.88ZM343.86 83.08h11.21v27.44h4.63V83.08h11.22v-4.27h-27.06v4.27zM392.31 92.09 392 92c-5.32-1-8.55-1.73-8.55-4.47 0-3.84 5.2-4.86 8.26-4.86 3.75 0 6.62.65 8.47 3.49l.57.87 3.94-2.22-.71-1c-3.2-4.56-7.22-5.5-12.26-5.5-1.68 0-7.43.27-10.71 3.62a7.64 7.64 0 0 0-2.2 5.69c0 6.37 6.59 7.59 12.39 8.68 5.63 1 9.32 1.94 9.28 5.23 0 4.62-6.12 5.11-8.76 5.11-3.51 0-7.94-1.63-9.6-4.75l-.5-1-4.16 2 .55 1c2.74 5.16 8.88 7 13.71 7 8.35 0 13.36-3.51 13.4-9.38-.03-7.09-6.82-8.33-12.81-9.42Z" class="cls-2"/></svg>